<svg width="1380" height="443" viewBox="0 0 1380 443" fill="none" xmlns="http://www.w3.org/2000/svg">
<path d="M393.359 57.1055C396.149 59.4916 398.868 61.9324 401.53 64.4389C398.868 61.9433 396.137 59.4916 393.359 57.1055Z" fill="white"/>
<path d="M252.451 211.064C184.974 177.921 131.722 122.635 103.539 55.4414C100.541 48.2831 90.9529 45.9627 84.6771 50.8881C32.9364 91.5176 0 152.681 0 221.079C0 289.477 32.9364 350.64 84.6771 391.269C90.9529 396.195 100.529 393.874 103.539 386.716C131.722 319.522 184.986 264.237 252.451 231.094C261.028 226.891 261.028 215.278 252.451 211.064Z" fill="white"/>
<path d="M152.682 415.186C149.184 421.381 152.473 429.021 159.528 431.275C183.271 438.871 208.712 442.998 235.186 442.998C349 442.998 443.915 366.862 465.672 265.715C467.136 258.918 461.918 252.449 454.561 252.066C406.377 249.57 244.019 253.259 152.682 415.186Z" fill="white"/>
<path d="M152.675 27.8124C149.189 21.6172 152.478 13.9883 159.532 11.7335C183.276 4.13738 208.728 0 235.214 0C349.016 0 443.92 76.1255 465.7 177.25C467.164 184.069 461.923 190.527 454.554 190.899C406.219 193.296 243.396 189.203 152.675 27.8124Z" fill="white"/>
<path d="M1154.96 77.1445C1143.04 77.1445 1133.38 86.2402 1133.38 97.4702V345.56C1133.38 356.779 1143.03 365.885 1154.96 365.885C1166.87 365.885 1176.54 356.79 1176.54 345.56V97.4593C1176.53 86.2402 1166.87 77.1445 1154.96 77.1445Z" fill="white"/>
<path d="M613.689 177.065C596.221 177.065 579.904 181.739 566.039 189.817V97.4702C566.039 86.2511 556.381 77.1445 544.457 77.1445C532.533 77.1445 522.875 86.2402 522.875 97.4702V262.582V280.369V345.571C522.875 356.79 532.533 365.896 544.457 365.896C553.824 365.896 561.797 360.27 564.784 352.411C578.904 360.949 595.698 365.896 613.689 365.896C663.756 365.896 704.491 327.533 704.491 280.38V262.593C704.491 215.429 663.756 177.065 613.689 177.065ZM661.339 280.369C661.339 305.116 639.966 325.245 613.689 325.245C587.412 325.245 566.039 305.116 566.039 280.369V262.582C566.039 237.835 587.412 217.706 613.689 217.706C639.966 217.706 661.339 237.835 661.339 262.582V280.369Z" fill="white"/>
<path d="M1020.97 177.055C970.906 177.055 930.172 215.418 930.172 262.571V280.358C930.172 327.511 970.906 365.874 1020.97 365.874C1038.96 365.874 1055.76 360.916 1069.88 352.39C1072.85 360.248 1080.83 365.874 1090.21 365.874C1102.12 365.874 1111.79 356.779 1111.79 345.549V280.347V274.414V262.56C1111.78 215.418 1071.04 177.055 1020.97 177.055ZM1020.97 325.234C994.697 325.234 973.324 305.105 973.324 280.358V262.571C973.324 237.824 994.697 217.695 1020.97 217.695C1047.25 217.695 1068.62 237.824 1068.62 262.571V274.425V280.358C1068.62 305.105 1047.25 325.234 1020.97 325.234Z" fill="white"/>
<path d="M1288.84 177.055C1238.77 177.055 1198.04 215.418 1198.04 262.571V280.358C1198.04 327.511 1238.77 365.874 1288.84 365.874C1338.91 365.874 1379.64 327.511 1379.64 280.358V262.571C1379.64 215.418 1338.91 177.055 1288.84 177.055ZM1336.49 280.358C1336.49 305.105 1315.12 325.234 1288.84 325.234C1262.56 325.234 1241.19 305.105 1241.19 280.358V262.571C1241.19 237.824 1262.56 217.695 1288.84 217.695C1315.12 217.695 1336.49 237.824 1336.49 262.571V280.358Z" fill="white"/>
<path d="M817.798 177.065C800.33 177.065 784.013 181.739 770.148 189.817V97.4702C770.148 86.2511 760.49 77.1445 748.566 77.1445C736.654 77.1445 726.984 86.2402 726.984 97.4702V262.582V280.369V345.571C726.984 356.79 736.642 365.896 748.566 365.896C760.479 365.896 770.148 356.801 770.148 345.571V280.369V262.582C770.148 237.835 791.521 217.706 817.798 217.706C844.075 217.706 865.448 237.835 865.448 262.582V345.56C865.448 356.779 875.106 365.885 887.03 365.885C898.954 365.885 908.612 356.79 908.612 345.56V262.582C908.6 215.429 867.865 177.065 817.798 177.065Z" fill="white"/>
</svg>
